<?xml version="1.0" encoding="utf-8"?>
<!-- Generator: Adobe Illustrator 15.0.0, SVG Export Plug-In . SVG Version: 6.00 Build 0)  -->
<!DOCTYPE svg PUBLIC "-//W3C//DTD SVG 1.1//EN" "http://www.w3.org/Graphics/SVG/1.1/DTD/svg11.dtd">
<svg version="1.1" id="Layer_1" xmlns="http://www.w3.org/2000/svg" xmlns:xlink="http://www.w3.org/1999/xlink" x="0px" y="0px"
	 width="300px" height="80px" viewBox="0 0 300 80" enable-background="new 0 0 300 80" xml:space="preserve">
<g>
	<path fill-rule="evenodd" clip-rule="evenodd" fill="#FFFFFF" d="M41.01,41.287c1.253-3.642-2.119-16.799,1.303-19.106
		c1.293-0.873,7.341,7.265,12.16,5.211c1.791-0.764,0.612-2.092,2.171-4.776c1.563-2.692,3.467-4.124,6.08-7.383
		c0.656-0.817,4.265-6.622,6.948-6.515c4.52,0.182,4.776,7.049,3.474,10.422c-1.447,3.751-7.418,7.359-11.291,9.119
		c-0.776,0.354-3.868,0.061-5.211,1.305c-1.973,1.823-3.249,9.68-2.171,13.026c3.761,11.695,18.224,1.88,21.713-4.776
		c2.01-3.834,0.324-7.796,2.605-9.555c3.532-2.721,12.731,3.946,13.897,7.383c0.6,1.772,0.18,1.403,0.434,4.778
		c2.286-1.674,7.713-15.576,13.028-13.463c3.898,1.552-2.191,13.026,2.171,17.37c2.472,2.463,5.447,1.277,9.554,2.606
		c-9.531,4.255-17.223-5.699-13.463-16.503c-1.377,0.777-3.932,2.137-5.211,3.909c-1.868,2.589-3.776,12.697-6.948,12.594
		c-2.141-0.071-1.296-12.314-5.211-14.766c-1.271-0.795-5.464-2.194-6.948-0.435c-0.117,0.14,0.328,3.997,0.434,4.343
		c0.741,2.425,9.665,17.707,1.303,11.727c-2.135-1.527-4.043-2.853-5.212-6.08c-4.403,6.071-18.459,14.074-23.884,3.474
		c-1.487-2.905-1.337-7.127-0.868-9.555c0.312-1.618,2.043-4.628,1.737-5.211c-0.693-1.316-3.594-0.546-5.646-1.302
		c-2.574-0.949-3.378-2.988-4.776-3.039c0.802,7.803-1.802,16.242,0.434,23.883c0.106,0.362,3.247,11.767-0.868,9.99
		c-2.993-1.295-0.414-14.611-3.909-15.635c-1.447-0.425-8.135,7.946-9.554,9.119c-7.988,6.612-27.868,9.188-29.096-5.644
		c-0.692-8.374,7.812-23.428,11.725-29.096c3.388-4.909,5.182-7.342,9.554-11.292c2.732-2.468,8.467-6.973,13.462-7.382
		c2.627-0.216,7.469,0.597,8.685,4.343c1.89,5.82-5.045,11.607-9.553,13.896c2.021-0.825,14.122-16.241,1.737-16.068
		c-8.265,0.115-17.864,12.131-22.582,19.107c-3.9,5.768-9.153,13.913-10.423,22.147c-1.286,8.348,2.18,15.007,13.462,13.462
		c9.569-1.311,13.315-7.25,18.674-13.028C36.933,41.734,37.365,39.649,41.01,41.287z M58.381,26.957
		c5.509-3.333,14.419-5.54,12.159-15.198C64.925,14.974,60.154,21.346,58.381,26.957z M81.831,44.761
		c-0.66-2.67-1.531-5.128-3.041-6.948C78.811,41.123,79.777,43.485,81.831,44.761z"/>
	<path fill-rule="evenodd" clip-rule="evenodd" fill="#FFFFFF" d="M266.826,16.969c-4.861,8.263,11.621,4.025,15.199,1.303
		c8.982-6.837-5.504-10.33-7.816-5.646c-1.352,2.734,2.545,0.875,0.434,3.909c-12.746-5.31,14.301-15.106,13.027-1.737
		c-0.385,4.027-7.594,7.817-10.422,8.686c-4.305,1.319-16.467,2.659-13.896-4.344C263.867,17.733,265.281,18.049,266.826,16.969z"/>
	<path fill-rule="evenodd" clip-rule="evenodd" fill="#FFFFFF" d="M157.393,34.774c-0.321,2.43,3.842,2.742,5.211,4.776
		c1.215-3.697,3.359-6.768,7.383-10.422c1.396-1.269,7.442-5.197,6.947-0.87c-0.094,0.827-2.994,1.047-3.474,1.305
		c-2.292,1.229-11.98,11.455-6.079,13.461c4.281,1.456,10.264-5.041,10.855-6.513c0.715-1.776,0.023-3.298,0.435-4.344
		c0.515-1.308,2.569-4.854,4.343-3.909c5.916,3.156-6.837,9.81,1.303,10.857c2.945,0.38,6.377-2.508,7.383-3.907
		c0.26-0.362,0.094-3.834,2.17-3.908c4.453-0.159-2.423,7.631,3.475,8.25c1.723,0.18,4.492-3.237,5.212-4.776
		c1.01-2.161-0.155-4.466,1.737-4.778c2.883-0.476,4.646,11.906,5.645,12.594c5.148-1.841,3.691-1.947,3.908-6.078
		c0.389-7.406,6.209-20.461,12.158-24.753c1.918-1.384,13.982-5.486,15.201,0.867c0.6,3.123-4.918,11.825-6.514,13.896
		c-1.506,1.954-4.859,4.974-8.252,7.817c-1.959,1.642-8.529,4.984-9.119,6.947c-1.164,3.87,5.176,7.961,9.119,7.817
		c4.738-0.171,12.021-6.041,13.896-9.119c0.568-0.934,1.891-5.628,3.039-5.646c3.209-0.048-0.355,6.53,2.172,8.25
		c3.594,2.445,9.674-5.147,11.725-6.514c2.166-1.441,6.475-3.122,8.252-3.039c3.031,0.14,5.334,4.51,6.514,4.776
		c2.197,0.498,10.74-4.724,13.895-5.211c5.949-0.921,17.9,5.128,12.594,12.159c-2.947,3.908-19.248,10.173-21.711,3.041
		c2.656,4.124,20.053-1.271,19.975-6.95c-0.055-4.146-8.189-5.7-11.725-5.211c-1.752,0.244-10.441,3.156-12.158,4.778
		c-1.688,1.592-1.457,4.479-3.908,6.514c-0.812,0.673-5.998,4.67-7.383,3.908c-5.379-2.954,7.781-11.214,7.816-11.726
		c0.092-1.354-2.213-2.854-3.908-3.04c-8.188-0.894-17.279,17.468-23.451,6.081c-4.023,2.945-7.758,8.012-13.461,9.119
		c-4.898,0.949-9.719-1.899-12.16-5.211c-0.48-0.652-1.396-3.071-1.303-3.041c-0.924-0.297-3.773,1.359-3.908,1.737
		c-0.141,0.394,2.215,4.098,2.172,3.908c3.602,15.873-16.338,24.755-31.701,22.583c-2.316-0.33-6.15-2.359-6.08-5.213
		c0.139-5.541,9.873-9.781,14.766-12.594c3.086-1.772,5.551-3.781,8.25-5.211c1.975-1.044,8.518-2.58,9.119-4.342
		c0.715-2.087-2.699-3.889-3.039-6.947c-2.381,1.76-2.771,5.103-6.08,5.644c-4.412,0.725-4.291-3.186-6.514-3.474
		c-1.835-0.237-4.465,3.312-8.251,2.606c-1.301-0.244-3.427-2.23-4.343-2.172c-1.818,0.116-2.545,2.644-5.211,4.343
		c-0.68,0.434-3.856,0.582-4.342,1.737c-0.749,1.776,1.245,2.371,1.736,4.342c1.199,4.814-0.514,11.509-3.04,15.201
		c-4.714,6.885-20.385,15.658-33.872,14.764c-15.732-1.041-19.57-19.633-9.554-30.398c5.698-6.124,14.31-10.612,23.45-13.463
		c-4.958-1.911-9.512-0.816-10.856-4.775c-3.083-9.085,4.957-29.298,15.199-26.925c8.074,1.87,0.596,13.175-3.039,17.37
		c-1.795,2.071-8.223,8.266-7.383,9.987C143.393,33.303,153.806,34.327,157.393,34.774z M147.404,20.008
		c0.987-1.15,8.751-8.584,6.515-12.158c-1.889-3.017-8.433,1.78-9.12,2.604c-3.835,4.596-4.656,14.24-5.212,19.976
		C142.481,27.174,143.967,24.012,147.404,20.008z M230.348,27.826c2.32-2.633,14.51-17.292,3.475-16.502
		c-10.004,0.716-17.961,16.723-16.936,27.358C221.354,35.092,225.979,32.781,230.348,27.826z M149.575,37.378
		c-8.563,3.914-19.072,8.182-25.621,17.371c-3.149,4.418-4.032,11.494-1.737,16.504c2.339,5.104,8.889,8.031,17.37,7.381
		c10.979-0.844,25.213-9.854,28.662-17.371c1.976-4.307,1.63-10.849,0-13.895c-1.664-3.108-11.74-11.188-17.806-10.422
		C150.031,36.997,149.898,37.232,149.575,37.378z M207.332,46.933c-4.969,2.474-10.152,5.391-16.068,8.685
		c-3.834,2.135-14.896,6.762-13.896,11.291c0.763,3.447,12.027,3.293,17.806,1.736c5.372-1.447,13.013-6.598,14.765-10.422
		c1.422-3.104,1.102-11.342-1.736-11.726C207.662,46.425,207.586,46.807,207.332,46.933z"/>
</g>
</svg>
