<?xml version="1.0" encoding="UTF-8"?>
<svg id="Layer_1" data-name="Layer 1" xmlns="http://www.w3.org/2000/svg" width="164" height="62.48" viewBox="0 0 164 62.48">
  <path d="m83.63.89h9.57l17.01,17.96V.89h8.51v27.22h-9.86l-16.68-17.5v17.5h-8.55V.89Z" fill="#183734"/>
  <path d="m67.55,22.86h-15.05l-2.38,5.24h-8.79L54.38.89h11.25l13.02,27.22h-8.72l-2.38-5.24Zm-2.61-5.78l-4.91-10.79h-.08l-4.88,10.79h9.87Z" fill="#183734"/>
  <path d="m20.09,18.12h9.84l-.29.77c-.63,1.29-1.76,2.23-3.41,2.83-1.65.6-3.57.91-5.78.91s-5.19-.39-6.84-1.16c-1.65-.77-2.83-1.89-3.53-3.35-.46-1.03-.69-2.25-.69-3.66,0-.75.05-1.4.16-1.97.11-.57.3-1.12.57-1.66.68-1.46,1.85-2.57,3.51-3.32,1.66-.75,4.6-1.12,6.94-1.12,1.52,0,2.93.16,4.21.48,1.28.32,2.34.83,3.19,1.52.41.35.75.76,1.04,1.22h9.75c-.27-.77-.66-1.56-1.19-2.37-.76-1.16-1.63-2.13-2.61-2.93-1.69-1.46-3.78-2.55-6.29-3.26-2.51-.71-5.27-1.06-8.29-1.06-4.44,0-9.15.69-12.27,2.06-3.12,1.37-5.34,3.44-6.68,6.19-.95,2-1.43,4.09-1.43,6.25,0,2.31.44,4.39,1.31,6.24.84,1.8,2.14,3.32,3.88,4.55,1.74,1.23,3.82,2.16,6.23,2.78,2.41.62,5.99.93,8.88.93,4.25,0,7.88-.69,10.88-2.08,3.01-1.39,5.18-3.46,6.51-6.21.57-1.16.97-2.29,1.2-3.41.23-1.12.35-2.46.35-4.03v-.5h-19.15v5.36Z" fill="#183734"/>
  <path d="m144.85,18.12h9.84l-.29.77c-.63,1.29-1.76,2.23-3.41,2.83-1.65.6-3.57.91-5.78.91s-5.19-.39-6.84-1.16c-1.65-.77-2.83-1.89-3.53-3.35-.46-1.03-.69-2.25-.69-3.66,0-.75.05-1.4.16-1.97.11-.57.3-1.12.57-1.66.68-1.46,1.85-2.57,3.51-3.32,1.66-.75,4.6-1.12,6.94-1.12,1.52,0,2.93.16,4.21.48,1.28.32,2.34.83,3.19,1.52.41.35.75.76,1.04,1.22h9.75c-.27-.77-.66-1.56-1.19-2.37-.76-1.16-1.63-2.13-2.61-2.93-1.69-1.46-3.78-2.55-6.29-3.26-2.51-.71-5.27-1.06-8.29-1.06-4.44,0-9.15.69-12.27,2.06-3.12,1.37-5.34,3.44-6.68,6.19-.95,2-1.43,4.09-1.43,6.25,0,2.31.44,4.39,1.31,6.24.84,1.8,2.14,3.32,3.88,4.55,1.74,1.23,3.82,2.16,6.23,2.78,2.41.62,5.99.93,8.88.93,4.25,0,7.88-.69,10.88-2.08,3.01-1.39,5.18-3.46,6.51-6.21.57-1.16.97-2.29,1.2-3.41.23-1.12.35-2.46.35-4.03v-.5h-19.15v5.36Z" fill="#183734"/>
  <path d="m80.37,61.59h-9.57l-17.01-17.96v17.96h-8.51v-27.22h9.86l16.68,17.5v-17.5h8.55v27.22Z" fill="#183734"/>
  <path d="m96.45,39.62h15.05l2.38-5.24h8.79l-13.05,27.22h-11.25l-13.02-27.22h8.72l2.38,5.24Zm2.61,5.78l4.91,10.79h.08l4.88-10.79h-9.87Z" fill="#183734"/>
  <path d="m143.91,44.36h-9.84l.29-.77c.63-1.29,1.76-2.23,3.41-2.83,1.65-.6,3.57-.91,5.78-.91s5.19.39,6.84,1.16c1.65.77,2.83,1.89,3.53,3.35.46,1.03.69,2.25.69,3.66,0,.75-.05,1.4-.16,1.97-.11.57-.3,1.12-.57,1.66-.68,1.46-1.85,2.57-3.51,3.32-1.66.75-4.6,1.12-6.94,1.12-1.52,0-2.93-.16-4.21-.48-1.28-.32-2.34-.83-3.19-1.52-.41-.35-.75-.76-1.04-1.22h-9.75c.27.77.66,1.56,1.19,2.37.76,1.16,1.63,2.13,2.61,2.93,1.69,1.46,3.78,2.55,6.29,3.26,2.51.71,5.27,1.06,8.29,1.06,4.44,0,9.15-.69,12.27-2.06,3.12-1.37,5.34-3.44,6.68-6.19.95-2,1.43-4.09,1.43-6.25,0-2.31-.44-4.39-1.31-6.24-.84-1.8-2.14-3.32-3.88-4.55-1.74-1.23-3.82-2.16-6.23-2.78-2.41-.62-5.99-.93-8.88-.93-4.25,0-7.88.69-10.88,2.08-3.01,1.39-5.18,3.46-6.51,6.21-.57,1.16-.97,2.29-1.2,3.41-.23,1.12-.35,2.46-.35,4.03v.5h19.15v-5.36Z" fill="#183734"/>
  <path d="m19.15,44.36h-9.84l.29-.77c.63-1.29,1.76-2.23,3.41-2.83,1.65-.6,3.57-.91,5.78-.91s5.19.39,6.84,1.16c1.65.77,2.83,1.89,3.53,3.35.46,1.03.69,2.25.69,3.66,0,.75-.05,1.4-.16,1.97-.11.57-.3,1.12-.57,1.66-.68,1.46-1.85,2.57-3.51,3.32-1.66.75-4.6,1.12-6.94,1.12-1.52,0-2.93-.16-4.21-.48-1.28-.32-2.34-.83-3.19-1.52-.41-.35-.75-.76-1.04-1.22H.48c.27.77.66,1.56,1.19,2.37.76,1.16,1.63,2.13,2.61,2.93,1.69,1.46,3.78,2.55,6.29,3.26,2.51.71,5.27,1.06,8.29,1.06,4.44,0,9.15-.69,12.27-2.06,3.12-1.37,5.34-3.44,6.68-6.19.95-2,1.43-4.09,1.43-6.25,0-2.31-.44-4.39-1.31-6.24-.84-1.8-2.14-3.32-3.88-4.55-1.74-1.23-3.82-2.16-6.23-2.78-2.41-.62-5.99-.93-8.88-.93-4.25,0-7.88.69-10.88,2.08-3.01,1.39-5.18,3.46-6.51,6.21-.57,1.16-.97,2.29-1.2,3.41-.23,1.12-.35,2.46-.35,4.03v.5h19.15v-5.36Z" fill="#183734"/>
</svg>